<svg width="15" height="27" viewBox="0 0 15 27" fill="none" xmlns="http://www.w3.org/2000/svg">
<path d="M9.24542 15.1875V26.5H4.96354V15.1875V14.6875H4.46354H0.671387V10.8013H4.46354H4.96354V10.3013V6.57703C4.96354 4.55858 5.56269 3.05329 6.56173 2.05321C7.56127 1.05263 9.01876 0.5 10.8482 0.5C11.7463 0.5 12.6713 0.580314 13.3761 0.661656C13.676 0.696261 13.9343 0.73085 14.1316 0.759082V3.98959H12.5003C11.3416 3.98959 10.4998 4.35369 9.95707 4.98144C9.42606 5.59563 9.24542 6.38876 9.24542 7.12969V10.3005V10.8005H9.74542H13.8515L13.2549 14.6867L9.74531 14.6875L9.24542 14.6876V15.1875Z" fill="white" stroke="white"/>
</svg>
